<svg width="56" height="55" viewBox="0 0 56 55" fill="none" xmlns="http://www.w3.org/2000/svg">
<path d="M28.1387 22.243C25.2771 22.243 22.9536 24.5988 22.9536 27.5C22.9536 30.4013 25.2771 32.757 28.1387 32.757C31.0002 32.757 33.3237 30.4013 33.3237 27.5C33.3237 24.5988 31.0002 22.243 28.1387 22.243Z" fill="white"/>
<path d="M34.5629 13.9691H21.4373C17.6952 13.9691 14.6543 17.0522 14.6543 20.8461V34.1539C14.6543 37.9479 17.6952 41.031 21.4373 41.031H34.5629C38.305 41.031 41.3459 37.9479 41.3459 34.1539V20.8461C41.3459 17.0522 38.305 13.9691 34.5629 13.9691ZM28.1305 35.7161C23.6629 35.7161 20.035 32.0296 20.035 27.5083C20.035 22.9869 23.6711 19.3004 28.1305 19.3004C32.59 19.3004 36.2261 22.9869 36.2261 27.5083C36.2261 32.0296 32.59 35.7161 28.1305 35.7161ZM36.6989 20.6973C35.6309 20.6973 34.7749 19.8212 34.7749 18.7466C34.7749 17.6721 35.6391 16.7959 36.6989 16.7959C37.7587 16.7959 38.6229 17.6721 38.6229 18.7466C38.6229 19.8212 37.7587 20.6973 36.6989 20.6973Z" fill="white"/>
<path d="M28.0001 0C13.0157 0 0.876465 12.3159 0.876465 27.5C0.876465 42.6841 13.0238 55 28.0001 55C42.9765 55 55.1238 42.6841 55.1238 27.5C55.1238 12.3159 42.9846 0 28.0001 0ZM44.4439 34.1539C44.4439 39.6754 40.0089 44.1637 34.563 44.1637H21.4373C15.9914 44.1637 11.5564 39.6754 11.5564 34.1539V20.8461C11.5564 15.3246 15.9914 10.8281 21.4373 10.8281H34.563C40.0089 10.8281 44.4439 15.3163 44.4439 20.8461V34.1539Z" fill="white"/>
</svg>
