<svg width="55" height="55" viewBox="0 0 55 55" fill="none" xmlns="http://www.w3.org/2000/svg">
<path d="M27.1237 0C12.1474 0 0 12.3159 0 27.5C0 42.6841 12.1474 55 27.1237 55C42.1 55 54.2473 42.6841 54.2473 27.5C54.2473 12.3159 42.1081 0 27.1237 0ZM37.8036 13.8864H34.6241C31.4935 13.8864 30.5152 15.8536 30.5152 17.8787V22.6728H37.5019L36.385 30.0541H30.5152V47.908H22.6397V30.0541H16.24V22.6728H22.6397V17.0439C22.6397 10.638 26.3981 7.10851 32.1538 7.10851C34.9094 7.10851 37.7954 7.60445 37.7954 7.60445V13.8946L37.8036 13.8864Z" fill="white"/>
</svg>
