<svg width="55" height="55" viewBox="0 0 55 55" fill="none" xmlns="http://www.w3.org/2000/svg">
<path d="M27.8761 0C12.8917 0 0.752441 12.3159 0.752441 27.5C0.752441 42.6841 12.8998 55 27.8761 55C42.8524 55 54.9998 42.6841 54.9998 27.5C54.9998 12.3159 42.8606 0 27.8761 0ZM45.714 16.2834C45.714 16.3744 45.714 16.6058 45.5265 16.8538C44.6949 17.9862 43.7981 18.9946 42.6894 19.846C42.5263 19.9699 42.2573 20.0939 42.2573 20.3254C42.2573 26.2601 40.7572 32.1949 36.4934 36.4931C31.0556 41.9732 22.903 43.4611 15.6635 41.436C14.2613 41.0392 12.9243 40.4937 11.6362 39.7994C11.2122 39.5597 10.7883 39.32 10.3807 39.0472C10.2747 38.9645 10.2013 38.8819 10.291 38.824C10.3806 38.7827 10.4459 38.7744 10.772 38.824C12.7938 39.0224 14.8809 38.7248 16.7967 38.0388C17.8484 37.6668 20.1148 36.9146 20.7671 35.9062C20.7834 35.8814 20.7997 35.8814 20.816 35.8566C20.5551 35.7905 20.2861 35.7905 20.0252 35.7492C18.0604 35.1788 15.4271 34.1787 14.2124 30.8145C14.139 30.6162 14.2124 30.517 14.4162 30.5583C16.0385 30.6906 16.6174 30.5996 17.1799 30.4674C16.862 30.4095 16.5359 30.3021 16.2424 30.1781C13.764 29.2193 11.9541 26.7726 11.6198 24.1193C11.5791 23.8135 11.5546 23.549 11.5709 23.268C11.5872 23.0696 11.6688 23.0117 11.84 23.1192C13.1118 23.7887 14.5466 23.9457 14.6608 23.9209C14.3428 23.673 14.0493 23.3919 13.764 23.1192C11.6117 21.0527 10.7801 16.8538 12.5003 14.2418C12.6389 14.0269 12.7286 14.0269 12.8998 14.2253C16.8293 18.7631 21.672 20.8874 27.5174 21.7636C27.6723 21.7884 27.6886 21.7636 27.6641 21.59C27.5092 20.5485 27.4929 19.5236 27.7375 18.4904C27.9984 17.4241 28.4957 16.4157 29.1805 15.5561C29.8409 14.7295 30.6724 14.0434 31.6018 13.5558C32.5312 13.0681 33.5585 12.7622 34.602 12.6961C35.6781 12.6217 36.7624 12.8036 37.7652 13.2086C38.5234 13.5227 39.2001 13.9442 39.8278 14.4898C39.9582 14.5972 40.0724 14.7295 40.2028 14.8783C40.2844 14.9609 40.374 14.9857 40.4963 14.9609C41.9883 14.5807 43.3905 14.0517 44.752 13.3078C44.8172 13.2747 44.8661 13.2582 44.9395 13.2913C45.0047 13.3408 44.9802 13.4152 44.9395 13.4814C44.6949 14.2831 44.271 15.0271 43.7492 15.68C43.4068 16.1099 42.5589 17.1679 41.9883 17.2671C43.203 17.0604 44.4503 16.7463 45.5754 16.2338C45.7221 16.1677 45.7221 16.1429 45.7221 16.2338V16.2669L45.714 16.2834Z" fill="white"/>
</svg>
