<svg width="520" height="520" viewBox="0 0 520 520" fill="none" xmlns="http://www.w3.org/2000/svg">
<path d="M260 520C403.594 520 520 403.594 520 260C520 116.406 403.594 0 260 0C116.406 0 0 116.406 0 260C0 403.594 116.406 520 260 520Z" fill="white"/>
<path d="M370.077 220.102C370.077 221.553 369.992 222.964 369.823 224.335C368.875 231.995 365.269 238.325 359.016 243.328C356.3 245.5 353.274 247.271 349.913 248.647C344.158 251.001 337.459 252.181 329.812 252.181C324.061 252.181 318.047 251.438 311.784 249.969C305.513 248.495 300.096 246.577 295.524 244.218L287.121 218.557C294.786 225.194 302.384 230.388 309.906 234.149C317.429 237.911 324.065 239.789 329.816 239.789C336.154 239.789 341.1 238.503 344.638 235.921C348.177 233.344 349.949 229.765 349.949 225.194C349.949 220.622 348.693 217.119 346.187 214.239C343.672 211.364 340.615 209.121 337.005 207.491C333.386 205.871 328.338 203.953 321.848 201.736C314.179 199.079 307.983 196.617 303.265 194.329C298.542 192.042 294.527 188.69 291.207 184.261C287.886 179.837 286.23 174.161 286.23 167.231C286.23 158.68 289.885 151.781 297.185 146.546C304.485 141.312 314.179 138.69 326.273 138.69C331.881 138.69 337.628 139.211 343.53 140.244C349.428 141.276 354.369 142.674 358.352 144.446L366.315 169.661C359.532 163.763 352.633 159.192 345.631 155.947C338.625 152.702 332.171 151.078 326.273 151.078C320.081 151.078 315.247 152.226 311.784 154.51C308.317 156.797 306.586 160.002 306.586 164.133C306.586 167.97 307.725 171.139 310.013 173.649C312.301 176.16 315.176 178.145 318.644 179.618C322.107 181.096 326.86 182.792 332.91 184.706C340.873 187.221 347.322 189.651 352.268 192.01C357.208 194.365 361.41 197.797 364.873 202.297C368.341 206.793 370.072 212.73 370.072 220.106L370.077 220.102Z" fill="#2D2D2D"/>
<path d="M180.694 252.372C170.078 252.372 160.708 250.013 152.598 245.294C144.484 240.576 138.217 233.94 133.797 225.384C129.372 216.834 127.16 206.952 127.16 195.74C127.16 184.527 129.372 174.65 133.797 166.095C138.221 157.545 144.488 150.908 152.598 146.185C160.708 141.467 170.074 139.108 180.694 139.108C191.314 139.108 200.417 141.467 208.456 146.185C216.49 150.908 222.726 157.545 227.151 166.095C231.575 174.65 233.787 184.532 233.787 195.74C233.787 206.948 231.575 216.834 227.151 225.384C222.726 233.94 216.495 240.576 208.456 245.294C200.417 250.017 191.163 252.372 180.694 252.372ZM180.694 239.984C190.571 239.984 198.503 235.929 204.476 227.819C210.45 219.709 213.437 209.018 213.437 195.744C213.437 182.471 210.45 171.779 204.476 163.665C198.503 155.555 190.576 151.5 180.694 151.5C170.812 151.5 162.627 155.559 156.582 163.665C150.533 171.779 147.511 182.471 147.511 195.744C147.511 209.018 150.533 219.709 156.582 227.819C162.627 235.934 170.666 239.984 180.694 239.984Z" fill="#2D2D2D"/>
<path d="M312.47 278.322C305.313 271.836 295.324 268.587 282.496 268.587C274.974 268.587 267.487 269.584 260.04 271.574C252.593 273.564 245.992 276.408 240.241 280.093L234.491 304.423C243.339 297.052 251.89 291.301 260.151 287.171C268.408 283.044 275.561 280.975 281.61 280.975C288.394 280.975 293.7 283.116 297.537 287.393C301.369 291.671 303.287 297.72 303.287 305.536V313.94C280.725 312.765 263.098 315.6 250.417 322.459C237.731 329.319 231.393 339.458 231.393 352.878C231.393 361.879 234.192 368.88 239.796 373.897C245.4 378.909 253.141 381.415 263.027 381.415C270.843 381.415 278.584 379.572 286.257 375.886C293.922 372.201 300.71 367.113 306.608 360.623L315.234 380.533H323.202V305.541C323.202 293.892 319.623 284.82 312.475 278.331L312.47 278.322ZM285.478 362.827C279.327 366.69 274.159 369.023 269.436 369.023C263.833 369.023 259.484 367.549 256.386 364.598C253.288 361.647 251.739 357.597 251.739 352.433C251.739 343.438 256.274 336.614 265.346 331.971C274.417 327.324 287.063 325.446 303.287 326.332C303.287 326.332 300.839 353.186 285.478 362.831V362.827Z" fill="#2D2D2D"/>
<path d="M157.184 382.458C147.302 382.458 139.557 379.952 133.958 374.935C128.349 369.924 125.549 362.917 125.549 353.917C125.549 340.501 131.888 330.357 144.573 323.498C157.255 316.639 174.881 313.804 197.444 314.979V306.57C197.444 298.754 195.526 292.71 191.693 288.432C187.856 284.154 182.546 282.018 175.767 282.018C169.718 282.018 162.565 284.083 154.308 288.214C146.047 292.345 137.496 298.095 128.647 305.467L134.398 281.132C140.149 277.447 146.75 274.607 154.197 272.613C161.644 270.623 169.13 269.626 176.648 269.626C189.481 269.626 199.469 272.871 206.622 279.361C213.775 285.85 217.35 294.922 217.35 306.57V381.563H209.387L200.76 361.653C194.858 368.143 188.074 373.231 180.41 376.916C172.74 380.606 164.995 382.449 157.184 382.449V382.458ZM163.598 370.07C168.316 370.07 173.488 367.738 179.635 363.874C194.996 354.229 197.444 327.375 197.444 327.375C181.22 326.489 168.574 328.372 159.507 333.015C150.436 337.662 145.904 344.485 145.904 353.477C145.904 358.64 147.453 362.695 150.551 365.642C153.649 368.593 157.998 370.066 163.602 370.066L163.598 370.07Z" fill="#2D2D2D"/>
<path d="M407.288 256.187C407.288 256.187 405.303 269.513 395.898 276.27C386.492 283.027 373.228 280.659 373.228 280.659C373.228 280.659 375.213 267.332 384.618 260.575C394.024 253.819 407.288 256.187 407.288 256.187Z" fill="#2D2D2D"/>
<path d="M268.733 110.904V250.745C265.827 251.213 262.938 251.845 260.04 252.615C256.096 253.67 252.384 254.969 248.917 256.505L248.828 123.447L268.733 110.908V110.904Z" fill="#2D2D2D"/>
<path d="M412.131 338.493L404.391 373.666C400.26 376.181 395.831 378.095 391.118 379.421C386.395 380.752 381.824 381.411 377.399 381.411C367.518 381.411 359.777 378.393 354.178 372.344C348.565 366.299 345.769 357.825 345.769 346.901V282.311H333.409L329.015 266.514L329.006 266.483L328.98 266.385L328.121 263.287C335.661 263.959 342.378 263.389 348.28 261.586C351.747 260.523 354.925 259.036 357.828 257.122C361.041 254.999 363.676 252.519 365.724 249.671L365.804 270.351L365.813 273.809C365.791 277.513 365.684 282.315 365.684 282.315V346.906C365.684 353.845 366.712 359.262 368.786 363.17C370.847 367.078 373.727 369.032 377.408 369.032C381.833 369.032 387.107 366.348 393.223 360.958C399.348 355.577 405.651 348.094 412.14 338.502L412.131 338.493Z" fill="#2D2D2D"/>
</svg>
